<svg version="1.0" xmlns="http://www.w3.org/2000/svg" width="1209.000000" height="680.000000" preserveAspectRatio="xMidYMid meet" style=""><rect id="backgroundrect" width="100%" height="100%" x="0" y="0" fill="none" stroke="none"/>
<metadata>
Created by potrace 1.16, written by Peter Selinger 2001-2019
</metadata>

<g class="currentLayer" style=""><title>Layer 1</title><g transform="translate(0, 680) scale(0.1, -0.1)" fill="#db4437" stroke="none" id="svg_1" class="selected" fill-opacity="1" opacity="1">
<path d="M665 6701 c-100 -26 -170 -56 -246 -107 -148 -98 -261 -248 -320 -424 -27 -81 -33 -114 -37 -220 -3 -104 -1 -140 17 -215 26 -109 73 -209 139 -295 28 -36 1233 -1247 2679 -2691 2071 -2069 2641 -2634 2689 -2663 34 -20 92 -47 129 -61 67 -26 72 -26 309 -23 l241 3 79 38 c44 21 107 57 140 82 93 67 5284 5266 5336 5344 99 149 135 271 134 456 -1 110 -5 143 -28 218 -86 286 -290 485 -570 557 -79 20 -91 20 -5350 19 -5019 0 -5274 -1 -5341 -18z" id="svg_2" fill="#db4437" fill-opacity="1" opacity="1"/>
</g></g></svg>