<svg width="343" height="353" viewBox="0 0 343 353" fill="none" xmlns="http://www.w3.org/2000/svg">
<path fill-rule="evenodd" clip-rule="evenodd" d="M108.294 235.288V141H0V282.905L68.335 209.985L69.0575 210.816L69.3036 210.344L108.294 235.288ZM108.294 281.476L73.9621 259.512L0 338.437V353H108.294V281.476Z" fill="white"/>
<path fill-rule="evenodd" clip-rule="evenodd" d="M225.32 71H117.026V240.875L163.056 270.322L225.32 203.88V71ZM225.32 259.412L168.344 320.211L167.723 319.496L117.026 287.063V353H225.32V259.412Z" fill="white"/>
<path fill-rule="evenodd" clip-rule="evenodd" d="M342.249 0H233.955V194.667L286.54 138.553L271.141 120.834L342.249 101.305V0ZM342.249 118.265L325.353 183.214L311.579 167.365L233.955 250.199V353H342.249V118.265Z" fill="white"/>
</svg>
