<svg width="1521" height="353" viewBox="0 0 1521 353" fill="none" xmlns="http://www.w3.org/2000/svg">
<path fill-rule="evenodd" clip-rule="evenodd" d="M108.294 235.288V141H0V282.905L68.335 209.985L69.0575 210.816L69.3036 210.344L108.294 235.288ZM108.294 281.476L73.9621 259.512L0 338.437V353H108.294V281.476Z" fill="white"/>
<path fill-rule="evenodd" clip-rule="evenodd" d="M225.32 71H117.026V240.875L163.056 270.322L225.32 203.88V71ZM225.32 259.412L168.344 320.211L167.723 319.496L117.026 287.063V353H225.32V259.412Z" fill="white"/>
<path fill-rule="evenodd" clip-rule="evenodd" d="M342.249 0H233.955V194.667L286.54 138.553L271.141 120.834L342.249 101.305V0ZM342.249 118.265L325.353 183.214L311.579 167.365L233.955 250.199V353H342.249V118.265Z" fill="white"/>
<path d="M422.722 126.92H452.971C467.18 126.92 477.458 129.044 483.806 133.292C490.153 137.54 493.327 144.254 493.327 153.434C493.327 159.781 491.545 165.03 487.98 169.181C484.465 173.282 479.313 175.943 472.526 177.164V177.896C488.786 180.68 496.916 189.225 496.916 203.531C496.916 213.102 493.669 220.572 487.175 225.943C480.729 231.314 471.696 234 460.075 234H422.722V126.92ZM435.173 172.77H455.681C464.47 172.77 470.793 171.402 474.65 168.668C478.508 165.885 480.437 161.222 480.437 154.679C480.437 148.673 478.288 144.352 473.991 141.715C469.694 139.029 462.858 137.687 453.483 137.687H435.173V172.77ZM435.173 183.316V223.38H457.512C466.154 223.38 472.648 221.72 476.994 218.399C481.389 215.03 483.586 209.781 483.586 202.652C483.586 196.012 481.34 191.129 476.848 188.004C472.404 184.879 465.617 183.316 456.486 183.316H435.173ZM600.847 126.92V196.207C600.847 208.414 597.16 218.009 589.787 224.991C582.414 231.974 572.282 235.465 559.392 235.465C546.501 235.465 536.516 231.949 529.436 224.918C522.404 217.887 518.889 208.219 518.889 195.914V126.92H531.34V196.793C531.34 205.729 533.781 212.589 538.664 217.374C543.547 222.159 550.725 224.552 560.197 224.552C569.23 224.552 576.188 222.159 581.071 217.374C585.954 212.54 588.396 205.631 588.396 196.646V126.92H600.847ZM689.689 205.509C689.689 214.933 686.271 222.281 679.436 227.555C672.6 232.828 663.322 235.465 651.604 235.465C638.908 235.465 629.143 233.829 622.307 230.558V218.546C626.701 220.401 631.486 221.866 636.662 222.94C641.838 224.015 646.965 224.552 652.043 224.552C660.344 224.552 666.594 222.989 670.793 219.864C674.992 216.69 677.092 212.296 677.092 206.681C677.092 202.97 676.335 199.942 674.821 197.599C673.356 195.206 670.866 193.009 667.351 191.007C663.884 189.005 658.586 186.734 651.457 184.195C641.496 180.631 634.367 176.407 630.07 171.524C625.822 166.642 623.698 160.27 623.698 152.408C623.698 144.156 626.799 137.589 633 132.706C639.201 127.823 647.404 125.382 657.609 125.382C668.254 125.382 678.044 127.335 686.979 131.241L683.098 142.081C674.26 138.37 665.666 136.515 657.316 136.515C650.725 136.515 645.573 137.931 641.862 140.763C638.151 143.595 636.296 147.525 636.296 152.555C636.296 156.266 636.979 159.317 638.347 161.71C639.714 164.054 642.009 166.227 645.231 168.229C648.503 170.182 653.483 172.354 660.173 174.747C671.403 178.751 679.118 183.048 683.317 187.638C687.565 192.228 689.689 198.185 689.689 205.509ZM711.589 234V126.92H724.04V234H711.589ZM837.126 234H822.917L764.396 144.132H763.811C764.592 154.679 764.982 164.347 764.982 173.136V234H753.483V126.92H767.546L825.92 216.422H826.506C826.408 215.104 826.188 210.88 825.847 203.751C825.505 196.573 825.383 191.446 825.48 188.37V126.92H837.126V234ZM926.262 234H866.569V126.92H926.262V137.979H879.021V172.477H923.405V183.463H879.021V222.867H926.262V234ZM1010.49 205.509C1010.49 214.933 1007.07 222.281 1000.24 227.555C993.4 232.828 984.123 235.465 972.404 235.465C959.709 235.465 949.943 233.829 943.107 230.558V218.546C947.502 220.401 952.287 221.866 957.463 222.94C962.639 224.015 967.766 224.552 972.844 224.552C981.145 224.552 987.395 222.989 991.594 219.864C995.793 216.69 997.893 212.296 997.893 206.681C997.893 202.97 997.136 199.942 995.622 197.599C994.157 195.206 991.667 193.009 988.151 191.007C984.685 189.005 979.387 186.734 972.258 184.195C962.297 180.631 955.168 176.407 950.871 171.524C946.623 166.642 944.499 160.27 944.499 152.408C944.499 144.156 947.6 137.589 953.801 132.706C960.002 127.823 968.205 125.382 978.41 125.382C989.055 125.382 998.845 127.335 1007.78 131.241L1003.9 142.081C995.061 138.37 986.467 136.515 978.117 136.515C971.525 136.515 966.374 137.931 962.663 140.763C958.952 143.595 957.097 147.525 957.097 152.555C957.097 156.266 957.78 159.317 959.147 161.71C960.515 164.054 962.81 166.227 966.032 168.229C969.304 170.182 974.284 172.354 980.974 174.747C992.204 178.751 999.919 183.048 1004.12 187.638C1008.37 192.228 1010.49 198.185 1010.49 205.509ZM1092.81 205.509C1092.81 214.933 1089.4 222.281 1082.56 227.555C1075.72 232.828 1066.45 235.465 1054.73 235.465C1042.03 235.465 1032.27 233.829 1025.43 230.558V218.546C1029.83 220.401 1034.61 221.866 1039.79 222.94C1044.96 224.015 1050.09 224.552 1055.17 224.552C1063.47 224.552 1069.72 222.989 1073.92 219.864C1078.12 216.69 1080.22 212.296 1080.22 206.681C1080.22 202.97 1079.46 199.942 1077.95 197.599C1076.48 195.206 1073.99 193.009 1070.48 191.007C1067.01 189.005 1061.71 186.734 1054.58 184.195C1044.62 180.631 1037.49 176.407 1033.2 171.524C1028.95 166.642 1026.82 160.27 1026.82 152.408C1026.82 144.156 1029.92 137.589 1036.12 132.706C1042.33 127.823 1050.53 125.382 1060.73 125.382C1071.38 125.382 1081.17 127.335 1090.1 131.241L1086.22 142.081C1077.38 138.37 1068.79 136.515 1060.44 136.515C1053.85 136.515 1048.7 137.931 1044.99 140.763C1041.28 143.595 1039.42 147.525 1039.42 152.555C1039.42 156.266 1040.1 159.317 1041.47 161.71C1042.84 164.054 1045.13 166.227 1048.36 168.229C1051.63 170.182 1056.61 172.354 1063.3 174.747C1074.53 178.751 1082.24 183.048 1086.44 187.638C1090.69 192.228 1092.81 198.185 1092.81 205.509ZM1182.61 158.121C1182.61 168.961 1178.9 177.311 1171.48 183.17C1164.1 188.98 1153.53 191.886 1139.76 191.886H1127.17V234H1114.71V126.92H1142.47C1169.23 126.92 1182.61 137.32 1182.61 158.121ZM1127.17 181.192H1138.37C1149.41 181.192 1157.39 179.41 1162.32 175.846C1167.25 172.281 1169.72 166.568 1169.72 158.707C1169.72 151.627 1167.4 146.354 1162.76 142.887C1158.12 139.42 1150.9 137.687 1141.08 137.687H1127.17V181.192ZM1264.79 234H1205.09V126.92H1264.79V137.979H1217.55V172.477H1261.93V183.463H1217.55V222.867H1264.79V234ZM1374.06 179.435C1374.06 197.11 1369.25 210.636 1359.64 220.011C1350.07 229.337 1336.27 234 1318.25 234H1288.59V126.92H1321.4C1338.05 126.92 1350.99 131.534 1360.22 140.763C1369.45 149.991 1374.06 162.882 1374.06 179.435ZM1360.88 179.874C1360.88 165.909 1357.37 155.387 1350.33 148.307C1343.35 141.227 1332.95 137.687 1319.13 137.687H1301.04V223.233H1316.2C1331.05 223.233 1342.2 219.596 1349.67 212.32C1357.15 204.996 1360.88 194.181 1360.88 179.874ZM1398.01 234V126.92H1410.47V234H1398.01ZM1507.22 234L1493.89 199.942H1450.97L1437.79 234H1425.19L1467.52 126.48H1478L1520.11 234H1507.22ZM1490.01 188.736L1477.56 155.558C1475.94 151.358 1474.28 146.207 1472.58 140.104C1471.5 144.791 1469.96 149.942 1467.96 155.558L1455.36 188.736H1490.01Z" fill="white"/>
</svg>
