<svg width="2815" height="409" viewBox="0 0 2815 409" fill="none" xmlns="http://www.w3.org/2000/svg">
<rect x="267" y="35" width="120" height="353" fill="#003B70"/>
<rect x="133" y="106" width="120" height="282" fill="#003B70"/>
<rect y="176" width="120" height="212" fill="#003B70"/>
<path fill-rule="evenodd" clip-rule="evenodd" d="M0 333.098L28 329L86 271L120 286.149V388H0V333.098Z" fill="#D9261C"/>
<path fill-rule="evenodd" clip-rule="evenodd" d="M133 291.941L187 316L234 271L253 253.206V388H133V291.941Z" fill="#D9261C"/>
<path fill-rule="evenodd" clip-rule="evenodd" d="M387 135L360 152.705L267 239.8V387.705H387V135Z" fill="#D9261C"/>
<path d="M472.145 106.84H546.852C575.953 106.84 597.535 111.186 611.598 119.877C625.758 128.471 632.838 141.898 632.838 160.16C632.838 172.172 629.762 182.426 623.609 190.922C617.457 199.418 609.352 204.887 599.293 207.328V208.793C612.574 212.309 622.193 218.168 628.15 226.371C634.107 234.574 637.086 245.219 637.086 258.305C637.086 277.738 629.762 293.07 615.113 304.301C600.562 315.434 580.689 321 555.494 321H472.145V106.84ZM530.006 189.018H547.438C555.738 189.018 562.135 187.309 566.627 183.891C571.217 180.473 573.512 175.395 573.512 168.656C573.512 156.645 564.43 150.639 546.266 150.639H530.006V189.018ZM530.006 231.352V276.322H550.367C568.434 276.322 577.467 268.705 577.467 253.471C577.467 246.342 575.025 240.873 570.143 237.064C565.357 233.256 558.375 231.352 549.195 231.352H530.006ZM856.373 106.84V235.746C856.373 263.773 848.414 285.502 832.496 300.932C816.676 316.264 793.824 323.93 763.941 323.93C734.742 323.93 712.281 316.459 696.559 301.518C680.934 286.576 673.121 265.092 673.121 237.064V106.84H731.275V232.523C731.275 247.66 734.107 258.646 739.771 265.482C745.436 272.318 753.785 275.736 764.82 275.736C776.637 275.736 785.182 272.367 790.455 265.629C795.826 258.793 798.512 247.66 798.512 232.23V106.84H856.373ZM1041.38 255.961C1041.38 269.242 1038.01 281.059 1031.28 291.41C1024.54 301.664 1014.82 309.672 1002.12 315.434C989.43 321.098 974.537 323.93 957.447 323.93C943.189 323.93 931.227 322.953 921.559 321C911.891 318.949 901.832 315.434 891.383 310.453V258.891C902.418 264.555 913.893 268.998 925.807 272.221C937.721 275.346 948.658 276.908 958.619 276.908C967.213 276.908 973.512 275.443 977.516 272.514C981.52 269.486 983.521 265.629 983.521 260.941C983.521 258.012 982.691 255.473 981.031 253.324C979.469 251.078 976.881 248.832 973.268 246.586C969.752 244.34 960.279 239.75 944.85 232.816C930.885 226.469 920.387 220.316 913.355 214.359C906.422 208.402 901.246 201.566 897.828 193.852C894.508 186.137 892.848 177.006 892.848 166.459C892.848 146.732 900.025 131.352 914.381 120.316C928.736 109.281 948.463 103.764 973.561 103.764C995.729 103.764 1018.34 108.891 1041.38 119.145L1023.66 163.822C1003.64 154.643 986.354 150.053 971.803 150.053C964.283 150.053 958.814 151.371 955.396 154.008C951.979 156.645 950.27 159.916 950.27 163.822C950.27 168.021 952.418 171.781 956.715 175.102C961.109 178.422 972.926 184.477 992.164 193.266C1010.62 201.566 1023.41 210.502 1030.54 220.072C1037.77 229.545 1041.38 241.508 1041.38 255.961ZM1074.49 321V106.84H1132.64V321H1074.49ZM1382.98 321H1307.11L1228.88 170.121H1227.56C1229.42 193.852 1230.35 211.967 1230.35 224.467V321H1179.08V106.84H1254.66L1332.59 255.668H1333.47C1332.11 234.086 1331.42 216.752 1331.42 203.666V106.84H1382.98V321ZM1556.42 321H1429.27V106.84H1556.42V153.275H1487.13V186.967H1551.29V233.402H1487.13V273.832H1556.42V321ZM1733.96 255.961C1733.96 269.242 1730.59 281.059 1723.85 291.41C1717.12 301.664 1707.4 309.672 1694.7 315.434C1682.01 321.098 1667.12 323.93 1650.03 323.93C1635.77 323.93 1623.8 322.953 1614.14 321C1604.47 318.949 1594.41 315.434 1583.96 310.453V258.891C1595 264.555 1606.47 268.998 1618.38 272.221C1630.3 275.346 1641.24 276.908 1651.2 276.908C1659.79 276.908 1666.09 275.443 1670.09 272.514C1674.1 269.486 1676.1 265.629 1676.1 260.941C1676.1 258.012 1675.27 255.473 1673.61 253.324C1672.05 251.078 1669.46 248.832 1665.85 246.586C1662.33 244.34 1652.86 239.75 1637.43 232.816C1623.46 226.469 1612.96 220.316 1605.93 214.359C1599 208.402 1593.82 201.566 1590.41 193.852C1587.09 186.137 1585.43 177.006 1585.43 166.459C1585.43 146.732 1592.6 131.352 1606.96 120.316C1621.31 109.281 1641.04 103.764 1666.14 103.764C1688.31 103.764 1710.91 108.891 1733.96 119.145L1716.24 163.822C1696.22 154.643 1678.93 150.053 1664.38 150.053C1656.86 150.053 1651.39 151.371 1647.97 154.008C1644.56 156.645 1642.85 159.916 1642.85 163.822C1642.85 168.021 1645 171.781 1649.29 175.102C1653.69 178.422 1665.5 184.477 1684.74 193.266C1703.2 201.566 1715.99 210.502 1723.12 220.072C1730.35 229.545 1733.96 241.508 1733.96 255.961ZM1907.11 255.961C1907.11 269.242 1903.74 281.059 1897 291.41C1890.26 301.664 1880.54 309.672 1867.85 315.434C1855.15 321.098 1840.26 323.93 1823.17 323.93C1808.91 323.93 1796.95 322.953 1787.28 321C1777.61 318.949 1767.55 315.434 1757.11 310.453V258.891C1768.14 264.555 1779.62 268.998 1791.53 272.221C1803.44 275.346 1814.38 276.908 1824.34 276.908C1832.94 276.908 1839.23 275.443 1843.24 272.514C1847.24 269.486 1849.24 265.629 1849.24 260.941C1849.24 258.012 1848.41 255.473 1846.75 253.324C1845.19 251.078 1842.6 248.832 1838.99 246.586C1835.47 244.34 1826 239.75 1810.57 232.816C1796.61 226.469 1786.11 220.316 1779.08 214.359C1772.14 208.402 1766.97 201.566 1763.55 193.852C1760.23 186.137 1758.57 177.006 1758.57 166.459C1758.57 146.732 1765.75 131.352 1780.1 120.316C1794.46 109.281 1814.19 103.764 1839.28 103.764C1861.45 103.764 1884.06 108.891 1907.11 119.145L1889.38 163.822C1869.36 154.643 1852.08 150.053 1837.53 150.053C1830.01 150.053 1824.54 151.371 1821.12 154.008C1817.7 156.645 1815.99 159.916 1815.99 163.822C1815.99 168.021 1818.14 171.781 1822.44 175.102C1826.83 178.422 1838.65 184.477 1857.89 193.266C1876.34 201.566 1889.14 210.502 1896.27 220.072C1903.49 229.545 1907.11 241.508 1907.11 255.961ZM2095.63 174.955C2095.63 198.881 2088.55 217.387 2074.39 230.473C2060.33 243.461 2040.31 249.955 2014.33 249.955H1998.07V321H1940.21V106.84H2014.33C2041.38 106.84 2061.7 112.748 2075.27 124.564C2088.84 136.381 2095.63 153.178 2095.63 174.955ZM1998.07 202.787H2008.62C2017.31 202.787 2024.2 200.346 2029.27 195.463C2034.45 190.58 2037.04 183.842 2037.04 175.248C2037.04 160.795 2029.03 153.568 2013.01 153.568H1998.07V202.787ZM2256.91 321H2129.76V106.84H2256.91V153.275H2187.62V186.967H2251.78V233.402H2187.62V273.832H2256.91V321ZM2476.2 209.379C2476.2 245.121 2466.33 272.66 2446.61 291.996C2426.98 311.332 2399.34 321 2363.7 321H2294.41V106.84H2368.53C2402.91 106.84 2429.42 115.629 2448.07 133.207C2466.82 150.785 2476.2 176.176 2476.2 209.379ZM2416.14 211.43C2416.14 191.801 2412.23 177.25 2404.42 167.777C2396.71 158.305 2384.94 153.568 2369.12 153.568H2352.27V273.539H2365.16C2382.74 273.539 2395.63 268.461 2403.83 258.305C2412.04 248.051 2416.14 232.426 2416.14 211.43ZM2514.72 321V106.84H2572.88V321H2514.72ZM2750.71 321L2740.16 280.863H2670.58L2659.74 321H2596.17L2666.04 105.961H2743.24L2813.99 321H2750.71ZM2728.15 233.402L2718.92 198.246C2716.77 190.434 2714.14 180.326 2711.01 167.924C2707.98 155.521 2705.98 146.635 2705.01 141.264C2704.13 146.244 2702.37 154.447 2699.73 165.873C2697.19 177.299 2691.48 199.809 2682.59 233.402H2728.15Z" fill="#003B70"/>
<path fill-rule="evenodd" clip-rule="evenodd" d="M387.832 135L363.846 218.214L348.583 202.365L189.865 355.211L189.177 354.496L85.2812 294.512L0 376.638V321.106L79.0459 244.985L79.8464 245.816L80.1191 245.344L184.005 305.322L320.837 173.553L303.773 155.834L387.832 135Z" fill="white"/>
</svg>
