<svg width="1524" height="353" viewBox="0 0 1524 353" fill="none" xmlns="http://www.w3.org/2000/svg">
<rect x="240.955" width="108.294" height="353" fill="white"/>
<rect x="120.026" y="71" width="108.294" height="282" fill="white"/>
<rect y="141" width="108.294" height="212" fill="white"/>
<path fill-rule="evenodd" clip-rule="evenodd" d="M0 298.098L25.2686 294L77.6108 236L108.294 251.149V353H0V298.098Z" fill="#D9261C"/>
<path fill-rule="evenodd" clip-rule="evenodd" d="M120.026 256.941L168.758 281L211.174 236L228.32 218.206V353H120.026V256.941Z" fill="#D9261C"/>
<path fill-rule="evenodd" clip-rule="evenodd" d="M349.249 100L324.883 117.705L240.955 204.8V352.705H349.249V100Z" fill="#D9261C"/>
<path fill-rule="evenodd" clip-rule="evenodd" d="M350 100L328.353 183.214L314.579 167.365L171.344 320.211L170.723 319.496L76.9621 259.512L0 341.638V286.106L71.335 209.985L72.0575 210.816L72.3036 210.344L166.056 270.322L289.54 138.553L274.141 120.834L350 100Z" fill="#003B70"/>
<path d="M425.722 126.92H455.971C470.18 126.92 480.458 129.044 486.806 133.292C493.153 137.54 496.327 144.254 496.327 153.434C496.327 159.781 494.545 165.03 490.98 169.181C487.465 173.282 482.313 175.943 475.526 177.164V177.896C491.786 180.68 499.916 189.225 499.916 203.531C499.916 213.102 496.669 220.572 490.175 225.943C483.729 231.314 474.696 234 463.075 234H425.722V126.92ZM438.173 172.77H458.681C467.47 172.77 473.793 171.402 477.65 168.668C481.508 165.885 483.437 161.222 483.437 154.679C483.437 148.673 481.288 144.352 476.991 141.715C472.694 139.029 465.858 137.687 456.483 137.687H438.173V172.77ZM438.173 183.316V223.38H460.512C469.154 223.38 475.648 221.72 479.994 218.399C484.389 215.03 486.586 209.781 486.586 202.652C486.586 196.012 484.34 191.129 479.848 188.004C475.404 184.879 468.617 183.316 459.486 183.316H438.173ZM603.847 126.92V196.207C603.847 208.414 600.16 218.009 592.787 224.991C585.414 231.974 575.282 235.465 562.392 235.465C549.501 235.465 539.516 231.949 532.436 224.918C525.404 217.887 521.889 208.219 521.889 195.914V126.92H534.34V196.793C534.34 205.729 536.781 212.589 541.664 217.374C546.547 222.159 553.725 224.552 563.197 224.552C572.23 224.552 579.188 222.159 584.071 217.374C588.954 212.54 591.396 205.631 591.396 196.646V126.92H603.847ZM692.689 205.509C692.689 214.933 689.271 222.281 682.436 227.555C675.6 232.828 666.322 235.465 654.604 235.465C641.908 235.465 632.143 233.829 625.307 230.558V218.546C629.701 220.401 634.486 221.866 639.662 222.94C644.838 224.015 649.965 224.552 655.043 224.552C663.344 224.552 669.594 222.989 673.793 219.864C677.992 216.69 680.092 212.296 680.092 206.681C680.092 202.97 679.335 199.942 677.821 197.599C676.356 195.206 673.866 193.009 670.351 191.007C666.884 189.005 661.586 186.734 654.457 184.195C644.496 180.631 637.367 176.407 633.07 171.524C628.822 166.642 626.698 160.27 626.698 152.408C626.698 144.156 629.799 137.589 636 132.706C642.201 127.823 650.404 125.382 660.609 125.382C671.254 125.382 681.044 127.335 689.979 131.241L686.098 142.081C677.26 138.37 668.666 136.515 660.316 136.515C653.725 136.515 648.573 137.931 644.862 140.763C641.151 143.595 639.296 147.525 639.296 152.555C639.296 156.266 639.979 159.317 641.347 161.71C642.714 164.054 645.009 166.227 648.231 168.229C651.503 170.182 656.483 172.354 663.173 174.747C674.403 178.751 682.118 183.048 686.317 187.638C690.565 192.228 692.689 198.185 692.689 205.509ZM714.589 234V126.92H727.04V234H714.589ZM840.126 234H825.917L767.396 144.132H766.811C767.592 154.679 767.982 164.347 767.982 173.136V234H756.483V126.92H770.546L828.92 216.422H829.506C829.408 215.104 829.188 210.88 828.847 203.751C828.505 196.573 828.383 191.446 828.48 188.37V126.92H840.126V234ZM929.262 234H869.569V126.92H929.262V137.979H882.021V172.477H926.405V183.463H882.021V222.867H929.262V234ZM1013.49 205.509C1013.49 214.933 1010.07 222.281 1003.24 227.555C996.4 232.828 987.123 235.465 975.404 235.465C962.709 235.465 952.943 233.829 946.107 230.558V218.546C950.502 220.401 955.287 221.866 960.463 222.94C965.639 224.015 970.766 224.552 975.844 224.552C984.145 224.552 990.395 222.989 994.594 219.864C998.793 216.69 1000.89 212.296 1000.89 206.681C1000.89 202.97 1000.14 199.942 998.622 197.599C997.157 195.206 994.667 193.009 991.151 191.007C987.685 189.005 982.387 186.734 975.258 184.195C965.297 180.631 958.168 176.407 953.871 171.524C949.623 166.642 947.499 160.27 947.499 152.408C947.499 144.156 950.6 137.589 956.801 132.706C963.002 127.823 971.205 125.382 981.41 125.382C992.055 125.382 1001.84 127.335 1010.78 131.241L1006.9 142.081C998.061 138.37 989.467 136.515 981.117 136.515C974.525 136.515 969.374 137.931 965.663 140.763C961.952 143.595 960.097 147.525 960.097 152.555C960.097 156.266 960.78 159.317 962.147 161.71C963.515 164.054 965.81 166.227 969.032 168.229C972.304 170.182 977.284 172.354 983.974 174.747C995.204 178.751 1002.92 183.048 1007.12 187.638C1011.37 192.228 1013.49 198.185 1013.49 205.509ZM1095.81 205.509C1095.81 214.933 1092.4 222.281 1085.56 227.555C1078.72 232.828 1069.45 235.465 1057.73 235.465C1045.03 235.465 1035.27 233.829 1028.43 230.558V218.546C1032.83 220.401 1037.61 221.866 1042.79 222.94C1047.96 224.015 1053.09 224.552 1058.17 224.552C1066.47 224.552 1072.72 222.989 1076.92 219.864C1081.12 216.69 1083.22 212.296 1083.22 206.681C1083.22 202.97 1082.46 199.942 1080.95 197.599C1079.48 195.206 1076.99 193.009 1073.48 191.007C1070.01 189.005 1064.71 186.734 1057.58 184.195C1047.62 180.631 1040.49 176.407 1036.2 171.524C1031.95 166.642 1029.82 160.27 1029.82 152.408C1029.82 144.156 1032.92 137.589 1039.12 132.706C1045.33 127.823 1053.53 125.382 1063.73 125.382C1074.38 125.382 1084.17 127.335 1093.1 131.241L1089.22 142.081C1080.38 138.37 1071.79 136.515 1063.44 136.515C1056.85 136.515 1051.7 137.931 1047.99 140.763C1044.28 143.595 1042.42 147.525 1042.42 152.555C1042.42 156.266 1043.1 159.317 1044.47 161.71C1045.84 164.054 1048.13 166.227 1051.36 168.229C1054.63 170.182 1059.61 172.354 1066.3 174.747C1077.53 178.751 1085.24 183.048 1089.44 187.638C1093.69 192.228 1095.81 198.185 1095.81 205.509ZM1185.61 158.121C1185.61 168.961 1181.9 177.311 1174.48 183.17C1167.1 188.98 1156.53 191.886 1142.76 191.886H1130.17V234H1117.71V126.92H1145.47C1172.23 126.92 1185.61 137.32 1185.61 158.121ZM1130.17 181.192H1141.37C1152.41 181.192 1160.39 179.41 1165.32 175.846C1170.25 172.281 1172.72 166.568 1172.72 158.707C1172.72 151.627 1170.4 146.354 1165.76 142.887C1161.12 139.42 1153.9 137.687 1144.08 137.687H1130.17V181.192ZM1267.79 234H1208.09V126.92H1267.79V137.979H1220.55V172.477H1264.93V183.463H1220.55V222.867H1267.79V234ZM1377.06 179.435C1377.06 197.11 1372.25 210.636 1362.64 220.011C1353.07 229.337 1339.27 234 1321.25 234H1291.59V126.92H1324.4C1341.05 126.92 1353.99 131.534 1363.22 140.763C1372.45 149.991 1377.06 162.882 1377.06 179.435ZM1363.88 179.874C1363.88 165.909 1360.37 155.387 1353.33 148.307C1346.35 141.227 1335.95 137.687 1322.13 137.687H1304.04V223.233H1319.2C1334.05 223.233 1345.2 219.596 1352.67 212.32C1360.15 204.996 1363.88 194.181 1363.88 179.874ZM1401.01 234V126.92H1413.47V234H1401.01ZM1510.22 234L1496.89 199.942H1453.97L1440.79 234H1428.19L1470.52 126.48H1481L1523.11 234H1510.22ZM1493.01 188.736L1480.56 155.558C1478.94 151.358 1477.28 146.207 1475.58 140.104C1474.5 144.791 1472.96 149.942 1470.96 155.558L1458.36 188.736H1493.01Z" fill="white"/>
</svg>
