<svg width="388" height="353" viewBox="0 0 388 353" fill="none" xmlns="http://www.w3.org/2000/svg">
<rect x="267" width="120" height="353" fill="white"/>
<rect x="133" y="71" width="120" height="282" fill="white"/>
<rect y="141" width="120" height="212" fill="white"/>
<path fill-rule="evenodd" clip-rule="evenodd" d="M0 298.098L28 294L86 236L120 251.149V353H0V298.098Z" fill="#D9261C"/>
<path fill-rule="evenodd" clip-rule="evenodd" d="M133 256.941L187 281L234 236L253 218.206V353H133V256.941Z" fill="#D9261C"/>
<path fill-rule="evenodd" clip-rule="evenodd" d="M387 100L360 117.705L267 204.8V352.705H387V100Z" fill="#D9261C"/>
<path fill-rule="evenodd" clip-rule="evenodd" d="M387.832 100L363.846 183.214L348.583 167.365L189.865 320.211L189.177 319.496L85.2812 259.512L0 341.638V286.106L79.0459 209.985L79.8464 210.816L80.1191 210.344L184.005 270.322L320.837 138.553L303.773 120.834L387.832 100Z" fill="#003B70"/>
</svg>
