<svg width="1890" height="353" viewBox="0 0 1890 353" fill="none" xmlns="http://www.w3.org/2000/svg">
<rect x="267" width="120" height="353" fill="white"/>
<rect x="133" y="71" width="120" height="282" fill="white"/>
<rect y="141" width="120" height="212" fill="white"/>
<path fill-rule="evenodd" clip-rule="evenodd" d="M0 298.098L28 294L86 236L120 251.149V353H0V298.098Z" fill="#D9261C"/>
<path fill-rule="evenodd" clip-rule="evenodd" d="M133 256.941L187 281L234 236L253 218.206V353H133V256.941Z" fill="#D9261C"/>
<path fill-rule="evenodd" clip-rule="evenodd" d="M387 100L360 117.705L267 204.8V352.705H387V100Z" fill="#D9261C"/>
<path d="M469.215 116.227H508.375C526.018 116.227 538.974 119.221 547.242 125.211C555.51 131.201 559.645 140.25 559.645 152.359C559.645 160.628 557.105 167.529 552.027 173.062C547.014 178.531 539.658 182.047 529.957 183.609V184.195C541.35 185.888 549.716 189.501 555.055 195.035C560.458 200.504 563.16 208.154 563.16 217.984C563.16 231.135 558.798 241.259 550.074 248.355C541.35 255.452 528.98 259 512.965 259H469.215V116.227ZM479.176 179.801H510.621C524.033 179.801 533.766 177.587 539.82 173.16C545.94 168.668 549 161.669 549 152.164C549 142.659 545.549 135.758 538.648 131.461C531.812 127.164 521.591 125.016 507.984 125.016H479.176V179.801ZM479.176 188.59V250.211H512.77C539.202 250.211 552.418 239.469 552.418 217.984C552.418 198.388 538.486 188.59 510.621 188.59H479.176ZM699.586 116.227V208.609C699.586 225.016 694.833 237.841 685.328 247.086C675.823 256.331 662.574 260.953 645.582 260.953C629.046 260.953 616.122 256.331 606.812 247.086C597.568 237.776 592.945 224.82 592.945 208.219V116.227H603.004V208.609C603.004 222.346 606.812 233.056 614.43 240.738C622.047 248.355 632.822 252.164 646.754 252.164C660.361 252.164 670.908 248.421 678.395 240.934C685.882 233.382 689.625 222.932 689.625 209.586V116.227H699.586ZM817.359 222.184C817.359 234.098 812.965 243.538 804.176 250.504C795.452 257.47 783.831 260.953 769.312 260.953C751.865 260.953 738.486 259.033 729.176 255.191V245.23C739.462 249.592 752.581 251.773 768.531 251.773C780.25 251.773 789.527 249.104 796.363 243.766C803.264 238.362 806.715 231.298 806.715 222.574C806.715 217.171 805.576 212.711 803.297 209.195C801.018 205.615 797.307 202.359 792.164 199.43C787.021 196.5 779.469 193.342 769.508 189.957C754.924 184.944 744.833 179.54 739.234 173.746C733.701 167.887 730.934 160.107 730.934 150.406C730.934 139.729 735.1 131.038 743.434 124.332C751.832 117.561 762.607 114.176 775.758 114.176C789.169 114.176 801.767 116.715 813.551 121.793L809.938 130.387C798.089 125.439 786.76 122.965 775.953 122.965C765.406 122.965 757.008 125.406 750.758 130.289C744.508 135.172 741.383 141.812 741.383 150.211C741.383 155.484 742.327 159.814 744.215 163.199C746.168 166.585 749.326 169.645 753.688 172.379C758.049 175.048 765.536 178.271 776.148 182.047C787.281 185.888 795.647 189.632 801.246 193.277C806.845 196.858 810.914 200.96 813.453 205.582C816.057 210.139 817.359 215.673 817.359 222.184ZM847.535 259V116.227H857.496V259H847.535ZM1001.73 259H991.676L907.105 132.242H906.324C907.105 147.346 907.496 158.74 907.496 166.422V259H897.926V116.227H907.887L992.359 242.789H992.945C992.359 231.07 992.066 219.938 992.066 209.391V116.227H1001.73V259ZM1120.29 259H1042.26V116.227H1120.29V125.406H1052.22V179.41H1116.48V188.59H1052.22V249.82H1120.29V259ZM1231.42 222.184C1231.42 234.098 1227.03 243.538 1218.24 250.504C1209.51 257.47 1197.89 260.953 1183.38 260.953C1165.93 260.953 1152.55 259.033 1143.24 255.191V245.23C1153.52 249.592 1166.64 251.773 1182.59 251.773C1194.31 251.773 1203.59 249.104 1210.43 243.766C1217.33 238.362 1220.78 231.298 1220.78 222.574C1220.78 217.171 1219.64 212.711 1217.36 209.195C1215.08 205.615 1211.37 202.359 1206.23 199.43C1201.08 196.5 1193.53 193.342 1183.57 189.957C1168.99 184.944 1158.9 179.54 1153.3 173.746C1147.76 167.887 1145 160.107 1145 150.406C1145 139.729 1149.16 131.038 1157.5 124.332C1165.89 117.561 1176.67 114.176 1189.82 114.176C1203.23 114.176 1215.83 116.715 1227.61 121.793L1224 130.387C1212.15 125.439 1200.82 122.965 1190.02 122.965C1179.47 122.965 1171.07 125.406 1164.82 130.289C1158.57 135.172 1155.45 141.812 1155.45 150.211C1155.45 155.484 1156.39 159.814 1158.28 163.199C1160.23 166.585 1163.39 169.645 1167.75 172.379C1172.11 175.048 1179.6 178.271 1190.21 182.047C1201.34 185.888 1209.71 189.632 1215.31 193.277C1220.91 196.858 1224.98 200.96 1227.52 205.582C1230.12 210.139 1231.42 215.673 1231.42 222.184ZM1340.41 222.184C1340.41 234.098 1336.01 243.538 1327.22 250.504C1318.5 257.47 1306.88 260.953 1292.36 260.953C1274.91 260.953 1261.53 259.033 1252.22 255.191V245.23C1262.51 249.592 1275.63 251.773 1291.58 251.773C1303.3 251.773 1312.57 249.104 1319.41 243.766C1326.31 238.362 1329.76 231.298 1329.76 222.574C1329.76 217.171 1328.62 212.711 1326.34 209.195C1324.07 205.615 1320.35 202.359 1315.21 199.43C1310.07 196.5 1302.52 193.342 1292.55 189.957C1277.97 184.944 1267.88 179.54 1262.28 173.746C1256.75 167.887 1253.98 160.107 1253.98 150.406C1253.98 139.729 1258.15 131.038 1266.48 124.332C1274.88 117.561 1285.65 114.176 1298.8 114.176C1312.22 114.176 1324.81 116.715 1336.6 121.793L1332.98 130.387C1321.14 125.439 1309.81 122.965 1299 122.965C1288.45 122.965 1280.05 125.406 1273.8 130.289C1267.55 135.172 1264.43 141.812 1264.43 150.211C1264.43 155.484 1265.37 159.814 1267.26 163.199C1269.21 166.585 1272.37 169.645 1276.73 172.379C1281.1 175.048 1288.58 178.271 1299.2 182.047C1310.33 185.888 1318.69 189.632 1324.29 193.277C1329.89 196.858 1333.96 200.96 1336.5 205.582C1339.1 210.139 1340.41 215.673 1340.41 222.184ZM1456.52 157.242C1456.52 171.044 1451.83 181.624 1442.46 188.98C1433.08 196.337 1419.8 200.016 1402.61 200.016H1380.54V259H1370.58V116.227H1405.54C1439.53 116.227 1456.52 129.898 1456.52 157.242ZM1380.54 191.422H1400.17C1416.25 191.422 1427.87 188.785 1435.04 183.512C1442.2 178.173 1445.78 169.547 1445.78 157.633C1445.78 146.63 1442.39 138.492 1435.62 133.219C1428.85 127.88 1418.37 125.211 1404.18 125.211H1380.54V191.422ZM1565.6 259H1487.57V116.227H1565.6V125.406H1497.54V179.41H1561.79V188.59H1497.54V249.82H1565.6V259ZM1706.32 186.246C1706.32 210.204 1700.04 228.336 1687.48 240.641C1674.91 252.88 1656.45 259 1632.11 259H1597.93V116.227H1636.5C1659.29 116.227 1676.6 122.184 1688.45 134.098C1700.37 146.012 1706.32 163.395 1706.32 186.246ZM1695.48 186.637C1695.48 166.194 1690.28 150.829 1679.86 140.543C1669.51 130.191 1654.27 125.016 1634.16 125.016H1607.89V250.211H1631.52C1674.16 250.211 1695.48 229.02 1695.48 186.637ZM1739.14 259V116.227H1749.1V259H1739.14ZM1858.28 208.609H1800.27L1780.35 259H1769.31L1826.73 115.641H1833.08L1889.33 259H1878.1L1858.28 208.609ZM1803.88 199.625H1854.96L1835.52 148.16C1833.9 144.124 1831.94 138.525 1829.66 131.363C1827.91 137.613 1825.99 143.277 1823.9 148.355L1803.88 199.625Z" fill="white"/>
<path fill-rule="evenodd" clip-rule="evenodd" d="M387.832 100L363.846 183.214L348.583 167.365L189.865 320.211L189.177 319.496L85.2812 259.512L0 341.638V286.106L79.0459 209.985L79.8464 210.816L80.1191 210.344L184.005 270.322L320.837 138.553L303.773 120.834L387.832 100Z" fill="#003B70"/>
</svg>
