<svg version="1.0" xmlns="http://www.w3.org/2000/svg" width="1280.000000" height="720.000000" preserveAspectRatio="xMidYMid meet"><rect id="backgroundrect" width="100%" height="100%" x="0" y="0" fill="none" stroke="none"/>
<metadata>
Created by potrace 1.16, written by Peter Selinger 2001-2019
</metadata>

<g class="currentLayer" style=""><title>Layer 1</title><g transform="translate(0, 720) scale(0.1, -0.1)" fill="#0f9d58" stroke="none" id="svg_1" class="selected" fill-opacity="1">
<path d="M6085 7193 c-11 -3 -57 -22 -102 -43 -73 -34 -98 -54 -235 -186 -375 -364 -3319 -3298 -4378 -4365 l-1167 -1175 -52 -105 c-74 -151 -86 -204 -86 -389 0 -134 3 -165 24 -230 49 -157 113 -265 223 -378 96 -98 183 -153 312 -200 69 -24 80 -25 446 -33 488 -9 10424 -10 10725 0 214 7 235 10 305 35 124 44 216 103 310 196 91 92 132 153 186 279 54 124 67 202 61 366 -6 160 -21 224 -78 343 -36 75 -60 104 -227 280 -244 256 -4885 4905 -5237 5246 -260 251 -274 263 -371 314 l-101 52 -269 -1 c-148 -1 -278 -4 -289 -6z" id="svg_2" fill="#0f9d58"/>
</g></g></svg>